<svg width="16" height="16" viewBox="0 0 16 16" fill="none" xmlns="http://www.w3.org/2000/svg">
<circle cx="8" cy="8" r="7.5" stroke="#9A9A9A"/>
<path d="M8.34659 4L8.26136 10.2727H7.27273L7.1875 4H8.34659ZM7.76705 12.7955C7.55682 12.7955 7.37642 12.7202 7.22585 12.5696C7.07528 12.419 7 12.2386 7 12.0284C7 11.8182 7.07528 11.6378 7.22585 11.4872C7.37642 11.3366 7.55682 11.2614 7.76705 11.2614C7.97727 11.2614 8.15767 11.3366 8.30824 11.4872C8.45881 11.6378 8.53409 11.8182 8.53409 12.0284C8.53409 12.1676 8.49858 12.2955 8.42756 12.4119C8.35938 12.5284 8.26705 12.6222 8.15057 12.6932C8.03693 12.7614 7.90909 12.7955 7.76705 12.7955Z" fill="#9A9A9A"/>
</svg>
